<?xml version="1.0" encoding="UTF-8"?>
<svg xmlns="http://www.w3.org/2000/svg" version="1.1" viewBox="0 0 360 230.69">
  <defs>
    <style>
      .cls-1, .cls-2 {
        fill: #231f20;
      }

      .cls-2, .cls-3, .cls-4 {
        stroke: #231f20;
        stroke-miterlimit: 10;
        stroke-width: 4px;
      }

      .cls-5 {
        fill: #d4aa68;
      }

      .cls-3 {
        fill: #fff;
      }

      .cls-4 {
        fill: #f9e0b2;
      }

      .cls-6 {
        display: none;
      }
    </style>
  </defs>
  <!-- Generator: Adobe Illustrator 28.6.0, SVG Export Plug-In . SVG Version: 1.2.0 Build 709)  -->
  <g>
    <g id="Layer_1">
      <path class="cls-3" d="M182.35,354.83"/>
      <g id="body" class="cls-6">
        <path class="cls-4" d="M251.68,263.9c2.27-.42,3.73-1.23,3.73-1.23,28.25-19.32-10.24-73.44-10.24-73.44h-122.59s-37.8,54.12-10.08,73.44l5.16,5.73c-1.27,11.05-5.04,59.31,28.44,58.93,0,0,25.21,7.54,28.98-41.99h21.82c3.62,49.54,27.79,41.99,27.79,41.99,36.26.42,26.98-61.16,26.98-61.16v-2.27M233.01,252.43,120.97,263.93,118.12,266.05,133.52,254.08,142.91,223.21,224.7,224.56,229.05,243.38,224.2,221.1,229.24,243.84"/>
        <path class="cls-4" d="M142.91,221.1s-4.17,65.19-33.03,39.45"/>
        <path class="cls-4" d="M222.1,221.1s7,52.63,33.31,41.57"/>
      </g>
      <path class="cls-4" d="M298.56,181.51c-27.91,40.22-90.31,39.15-117.09,38.7-20.25-.33-100.99-1.69-126-49.96-8.18-15.76-7.62-31.11-7.1-44.56,1.21-31.11,14.84-54.42,25.4-67.7,0,0-16.92-12.42,4.33-34.45,0,0,23.63-18.4,42.49,4.99,3.81-1.49,7.62-2.89,11.21-4,20.94-6.6,38.68-6.19,49.24-5.94,16.62.37,42.88.99,68.76,13.74,0,0,13.37-21.87,34.14-8.79,20.77,13.04,12.25,34.94,4.46,40.43,21.81,28.38,23.24,59.28,23.37,63.99.35,10.6.95,33.13-13.2,53.55Z"/>
      <ellipse class="cls-5" cx="115.88" cy="117.8" rx="16.05" ry="9.09"/>
      <ellipse class="cls-5" cx="246.16" cy="117.8" rx="16.05" ry="9.09"/>
      <ellipse class="cls-2" cx="151.52" cy="104.77" rx="6.84" ry="6.53"/>
      <ellipse class="cls-2" cx="206.28" cy="104.77" rx="6.84" ry="6.53"/>
      <ellipse class="cls-1" cx="180.31" cy="113.18" rx="10.62" ry="4.62"/>
      <path class="cls-1" d="M165.44,129.73c10.92,7.58,16.72,8.79,27.38,0-5.24,14.04-21.58,12.98-27.38,0h0Z"/>
      <path class="cls-2" d="M87.56,50.53l21.24-14.85s-11.8-11.63-21.24-3.34c-9.44,8.29,0,18.19,0,18.19Z"/>
      <path class="cls-2" d="M257.02,39.95l21.24,15.09s11.8-10.8,0-19.35c-11.8-8.55-21.24,4.27-21.24,4.27Z"/>
    </g>
  </g>
</svg>