<?xml version="1.0" encoding="UTF-8"?>
<svg xmlns="http://www.w3.org/2000/svg" version="1.1" viewBox="0 0 360 230.62">
  <defs>
    <style>
      .cls-1 {
        fill: #e795a1;
      }

      .cls-2, .cls-3 {
        fill: #231f20;
      }

      .cls-4, .cls-5 {
        fill: #fff;
      }

      .cls-3, .cls-5 {
        stroke: #231f20;
        stroke-miterlimit: 10;
        stroke-width: 4px;
      }

      .cls-6 {
        display: none;
      }
    </style>
  </defs>
  <!-- Generator: Adobe Illustrator 28.6.0, SVG Export Plug-In . SVG Version: 1.2.0 Build 709)  -->
  <g>
    <g id="Layer_1">
      <g id="body" class="cls-6">
        <path class="cls-5" d="M252.33,263.72c2.29-.43,3.76-1.24,3.76-1.24,28.47-19.47-10.32-73.99-10.32-73.99h-123.52s-38.08,54.53-10.16,73.99l5.2,5.78c-1.28,11.13-5.08,59.76,28.66,59.37,0,0,25.4,7.6,29.2-42.31h21.99c3.65,49.91,28,42.31,28,42.31,36.53.43,27.19-61.62,27.19-61.62v-2.29M233.52,252.16,120.63,263.76,117.76,265.89,133.28,253.83,142.74,222.73,225.15,224.08,229.53,243.05,224.64,220.59,229.72,243.51"/>
        <path class="cls-5" d="M142.74,220.59s-4.21,65.68-33.28,39.75"/>
        <path class="cls-5" d="M222.53,220.59s7.05,53.03,33.56,41.88"/>
      </g>
      <path class="cls-5" d="M298.21,177.06c-27.61,47.24-104.71,45.88-116.54,45.69-10.08-.19-89.31-2.57-115.72-51.59-1.67-3.08-19.24-35.88,1.71-66.44,14.31-20.88,41.07-32.68,61.82-35.31-21.68-63.84,15.59-62.63,15.59-62.63,37.81-3.01,35.52,49.24,34.83,58.44l.27-.03h16.37c.12-17.32,3.41-60.86,33.58-60.51,30.64.35,21.91,46.58,17.57,67.55.78.16,1.51.35,2.29.57,2.6.7,20.86,5.96,35.14,18.75,24.28,21.8,28.97,58.35,13.11,85.51Z"/>
      <path class="cls-1" d="M163.2,49.07c.99,8.01-3.39,14.95-9.78,15.51s-12.37-5.48-13.36-13.49,3.39-14.95,9.78-15.51c6.39-.56,12.37,5.48,13.36,13.49Z"/>
      <path class="cls-1" d="M236.28,51.73c-1.62,7.94-8.07,13.63-14.41,12.71-6.33-.92-10.15-8.09-8.52-16.03,1.62-7.94,8.07-13.63,14.41-12.71s10.15,8.09,8.52,16.03Z"/>
      <ellipse class="cls-1" cx="125.18" cy="126.36" rx="9.73" ry="4.45"/>
      <ellipse class="cls-1" cx="236.87" cy="126.36" rx="9.73" ry="4.45"/>
      <ellipse class="cls-1" cx="184.2" cy="126.36" rx="6.56" ry="4.45"/>
      <ellipse class="cls-3" cx="159.45" cy="118.71" rx="5.92" ry="4.98"/>
      <ellipse class="cls-3" cx="205.78" cy="118.53" rx="5.71" ry="4.8"/>
      <path class="cls-5" d="M169.18,138.63"/>
      <g>
        <path class="cls-4" d="M173.41,138.63s8.25,15.29,20.31,0"/>
        <path class="cls-2" d="M173.41,138.63c4.75,3.88,9.2,6.6,14.9,3.22,1.73-.89,3.44-2.09,5.41-3.22-3.56,11.25-17.54,12.06-20.31,0h0Z"/>
      </g>
    </g>
  </g>
</svg>