<?xml version="1.0" encoding="UTF-8"?>
<svg xmlns="http://www.w3.org/2000/svg" version="1.1" viewBox="0 0 360 230.6">
  <defs>
    <style>
      .cls-1 {
        fill: none;
      }

      .cls-1, .cls-2, .cls-3, .cls-4 {
        stroke: #231f20;
        stroke-miterlimit: 10;
        stroke-width: 4px;
      }

      .cls-2, .cls-5 {
        fill: #e6bc94;
      }

      .cls-6, .cls-3 {
        fill: #231f20;
      }

      .cls-7 {
        fill: #fff;
      }

      .cls-8 {
        display: none;
      }

      .cls-9, .cls-4 {
        fill: #fffffe;
      }
    </style>
  </defs>
  <!-- Generator: Adobe Illustrator 28.6.0, SVG Export Plug-In . SVG Version: 1.2.0 Build 709)  -->
  <g>
    <g id="Layer_1">
      <g id="body" class="cls-8">
        <path class="cls-2" d="M261.46,244.91c4.77-8.85,12.75-13.42,17.61-11.78,5.64,1.91,10.07,13.21,4.49,25.73-2.49,6.09-5.54,10.47-7.87,13.33-3.26,4.01-14.29,16.71-27.21,15.49-23.57-2.23,12.97-42.77,12.97-42.77Z"/>
        <path class="cls-2" d="M229.08,253.4,118.34,264.77,115.53,266.86,130.75,255.03,140.03,224.52,220.87,225.85,225.17,244.46,220.37,222.43,225.36,244.91,247.53,264.73c2.24-.42,3.69-1.22,3.69-1.22,27.92-19.1-10.12-72.58-10.12-72.58h-121.16s-37.36,53.49-9.97,72.58l5.1,5.67c-1.26,10.92-4.98,58.62,28.11,58.24,0,0,24.92,7.46,28.65-41.5h21.57c3.58,48.96,27.47,41.5,27.47,41.5,35.84.42,26.67-60.45,26.67-60.45v-2.24"/>
        <path class="cls-2" d="M140.03,222.43s-4.13,64.43-32.65,38.99"/>
        <path class="cls-9" d="M144.42,188.07c-9.06,42.08.03,77.72,22.67,88.72,4.25,2.06,10.05,3.78,17.91,3.69,3.7.02,9.28-.45,14.75-3.32,29.29-15.36,15.44-78.86,14.22-86.23-17.45-105.71-69.55-2.86-69.55-2.86Z"/>
        <path class="cls-2" d="M218.3,222.43s6.92,52.02,32.92,41.09"/>
        <path class="cls-7" d="M261.46,244.91c31.96-29.45,18.74,15.67,22.1,13.95l-11.38-7.18"/>
        <path class="cls-1" d="M260.41,232.8s2.41,12.01,0,17.76"/>
        <path class="cls-1" d="M286.14,244.91"/>
        <path class="cls-1" d="M280.58,265.03s1.48-.9,5.55-20.11"/>
      </g>
      <path class="cls-4" d="M290.51,169.87c-4.91,8.57-15.27,26.19-35.31,38.02-18.34,10.83-35.72,10.87-69.72,10.51-39.25-.41-60.72-.64-83-15.49-5.38-3.59-23.28-15.87-33.82-39.78-8.53-19.35-7.89-36.35-7.49-43.34.18-3.22,3.35-46.45,38.27-75.09,1.56-1.28,3.19-2.54,4.89-3.76,11.79-8.48,23.76-13.14,35.79-15.69,14.52-3.08,29.15-3.12,43.68-3.15,28.48-.06,57.58-.13,84.04,20.92,21.2,16.86,37.79,44.77,37.77,76.36-.02,23.9-10.05,41.7-15.09,50.5Z"/>
      <path class="cls-2" d="M177.73,75.64"/>
      <path class="cls-5" d="M65.25,122.67s90.76,43.16,116.76-44.27c2.57,10.31,7.8,23.79,18.95,35.56,23.3,24.58,62.77,31.52,101.67,19.36l7.24-3.46s-42.69-103.78-121.8-107.78c-79.11-4-120.07,46.91-122.83,100.58Z"/>
      <path class="cls-2" d="M143.6,25.23s-54.96-7.13-79.86,26.07c-4.41,5.88-31.24,26.96-37.69,62.48-1.55,8.52-4.06,23.43,2.28,40.44,3.51,9.41,8.52,16.23,12.17,20.47,10.37,2.11,18.33,1.47,22.84-1.11,12.55-7.19,27.38-27.67,36.46-80.79,0,0,14.66-47.7,43.8-67.57Z"/>
      <path class="cls-2" d="M-25.35-7.92"/>
      <path class="cls-2" d="M205.95,22.41s64.18-6.53,104.02,43.82c0,0,30.99,47.03,18.26,83.55,0,0-16.05,51.46-54.23-5.26-38.18-56.72-9.4-58.05-68.05-122.12Z"/>
      <ellipse class="cls-3" cx="180.49" cy="114.01" rx="11.62" ry="6.28"/>
      <circle class="cls-3" cx="147.44" cy="103.43" r="6.78"/>
      <circle class="cls-3" cx="208.99" cy="100.82" r="6.92"/>
      <path class="cls-6" d="M180.49,120.29c1.47,5.85.51,13.4-4.82,17.16-3.59,2.41-8.37.63-10.67-2.61,2.35.52,4.58,1.01,6.31.59,5.23-1.33,6.87-10.56,9.18-15.13h0Z"/>
      <path class="cls-6" d="M180.49,122.67c1.06,3.35,1.39,11.9,5.39,11.97,3.07-.05,5.82-1.61,9-2.56-1.26,2.03-2.91,3.74-5.04,5.05-10.23,5.44-13.27-7.16-9.35-14.46h0Z"/>
      <path class="cls-1" d="M143.6,25.23s30.76-10.11,64.33-.64"/>
    </g>
  </g>
</svg>