<?xml version="1.0" encoding="UTF-8"?>
<svg xmlns="http://www.w3.org/2000/svg" version="1.1" xmlns:xlink="http://www.w3.org/1999/xlink" viewBox="0 0 111.93 38.96">
  <defs>
    <style>
      .cls-1, .cls-2, .cls-3, .cls-4, .cls-5, .cls-6, .cls-7, .cls-8, .cls-9, .cls-10, .cls-11, .cls-12, .cls-13, .cls-14, .cls-15 {
        font-family: Modak, Modak;
        stroke-miterlimit: 10;
      }

      .cls-1, .cls-2, .cls-3, .cls-4, .cls-6, .cls-7, .cls-9, .cls-10, .cls-11, .cls-12, .cls-13 {
        stroke: #231f20;
      }

      .cls-1, .cls-3, .cls-8 {
        font-size: 19.53px;
      }

      .cls-1, .cls-5, .cls-7, .cls-8, .cls-9, .cls-12, .cls-14, .cls-15 {
        fill: none;
      }

      .cls-1, .cls-7, .cls-9, .cls-12 {
        stroke-width: .25px;
      }

      .cls-2, .cls-3, .cls-4, .cls-6, .cls-10, .cls-11, .cls-13 {
        stroke-width: 3px;
      }

      .cls-2, .cls-3, .cls-11 {
        fill: #0db7a0;
      }

      .cls-2, .cls-4, .cls-9, .cls-15 {
        font-size: 19.53px;
      }

      .cls-16 {
        fill: url(#linear-gradient-2);
      }

      .cls-4, .cls-10, .cls-13 {
        fill: #f075ac;
      }

      .cls-17 {
        fill: url(#linear-gradient-4);
      }

      .cls-18 {
        fill: url(#linear-gradient-3);
      }

      .cls-19 {
        fill: url(#linear-gradient-5);
      }

      .cls-5, .cls-6, .cls-7, .cls-10 {
        font-size: 19.53px;
      }

      .cls-5, .cls-8, .cls-14, .cls-15 {
        stroke: #fff;
        stroke-width: .5px;
      }

      .cls-20 {
        fill: url(#linear-gradient-8);
      }

      .cls-6 {
        fill: #0092b3;
      }

      .cls-21 {
        fill: url(#linear-gradient-7);
      }

      .cls-22 {
        fill: url(#linear-gradient-6);
      }

      .cls-11, .cls-12, .cls-13, .cls-14 {
        font-size: 19.53px;
      }

      .cls-23 {
        fill: url(#linear-gradient);
      }
    </style>
    <linearGradient id="linear-gradient" x1="4.03" y1="11.51" x2="15.49" y2="11.51" gradientUnits="userSpaceOnUse">
      <stop offset="0" stop-color="#0db7a0"/>
      <stop offset=".24" stop-color="#0fb6a0"/>
      <stop offset=".38" stop-color="#17b3a0"/>
      <stop offset=".49" stop-color="#26afa1"/>
      <stop offset=".6" stop-color="#3aa9a2"/>
      <stop offset=".69" stop-color="#54a2a3"/>
      <stop offset=".78" stop-color="#7598a5"/>
      <stop offset=".86" stop-color="#9b8da7"/>
      <stop offset=".94" stop-color="#c680a9"/>
      <stop offset="1" stop-color="#f075ac"/>
    </linearGradient>
    <linearGradient id="linear-gradient-2" x1="17.99" y1="14.38" x2="29.93" y2="14.38" xlink:href="#linear-gradient"/>
    <linearGradient id="linear-gradient-3" x1="31.8" y1="12.17" x2="43.83" y2="12.17" xlink:href="#linear-gradient"/>
    <linearGradient id="linear-gradient-4" x1="45.76" y1="16.33" x2="51.82" y2="16.33" xlink:href="#linear-gradient"/>
    <linearGradient id="linear-gradient-5" x1="67.92" y1="14.09" x2="79.8" y2="14.09" xlink:href="#linear-gradient"/>
    <linearGradient id="linear-gradient-6" x1="54.58" y1="16.39" x2="66.14" y2="16.39" xlink:href="#linear-gradient"/>
    <linearGradient id="linear-gradient-7" x1="81.62" y1="18.9" x2="91.5" y2="18.9" xlink:href="#linear-gradient"/>
    <linearGradient id="linear-gradient-8" x1="93.47" y1="27.11" x2="105.89" y2="27.11" xlink:href="#linear-gradient"/>
  </defs>
  <!-- Generator: Adobe Illustrator 28.6.0, SVG Export Plug-In . SVG Version: 1.2.0 Build 709)  -->
  <g>
    <g id="Layer_1">
      <text/>
      <g>
        <text class="cls-6" transform="translate(4.02 17.66)"><tspan x="0" y="0">S</tspan></text>
        <path class="cls-23" d="M9.45,14.19c.21-.04.31-.14.31-.32s-.06-.37-.17-.59c-.11-.22-.28-.43-.49-.62-.57-.51-1.33-.76-2.3-.76-.48,0-.92.08-1.33.24-.44-.22-.79-.58-1.05-1.06-.26-.48-.39-1-.39-1.56,0-1.46.61-2.59,1.83-3.39,1.05-.68,2.34-1.02,3.88-1.02,1.14,0,2.11.12,2.89.37s1.42.56,1.92.94c.15.42.22.86.22,1.31s-.06.86-.18,1.23-.3.66-.52.89c-.22-.16-.61-.32-1.17-.49-.57-.17-1.08-.25-1.54-.25s-.77.03-.93.09-.23.15-.23.27c0,.06,0,.11.03.16.22-.06.51-.09.86-.09,1.24,0,2.25.29,3.03.88.92.7,1.38,1.75,1.38,3.15,0,1.23-.5,2.26-1.5,3.07-1.08.87-2.53,1.31-4.36,1.31-1,0-1.88-.07-2.61-.22-.74-.15-1.46-.41-2.16-.79-.48-.69-.72-1.4-.72-2.11s.25-1.31.73-1.78c.49-.47,1.09-.71,1.81-.71s1.3.15,1.75.44.79.77,1.01,1.43Z"/>
        <text class="cls-7" transform="translate(4.02 17.66)"><tspan x="0" y="0">S</tspan></text>
        <text class="cls-5" transform="translate(4.02 17.66)"><tspan x="0" y="0">S</tspan></text>
      </g>
      <g>
        <text class="cls-6" transform="translate(17.69 20.54)"><tspan x="0" y="0">K</tspan></text>
        <path class="cls-16" d="M23.56,10.05v.43c-.25.53-.45.94-.58,1.23-.13.3-.2.5-.2.61,0,.18.1.28.31.28l1.88-4.12c.44-.29,1.04-.43,1.8-.43s1.41.21,1.96.63c.6.47.9,1.11.9,1.93,0,.68-.23,1.35-.7,2.01-.46.66-1.07,1.23-1.82,1.71-.35-.2-.66-.3-.94-.3s-.42.14-.42.41c.29.06.56.14.8.24.24.1.52.31.84.61l2.54,2.34c-.18,2.06-1.21,3.09-3.09,3.09-.69,0-1.29-.18-1.78-.53-.58-.41-1.04-1.04-1.37-1.89l-.89-2.21h-.05c-.21,0-.31.09-.31.27,0,.11.09.39.27.83.18.48.44,1.11.8,1.91v.73c-.67.6-1.64.9-2.91.9-.69,0-1.27-.16-1.76-.47-.55-.34-.83-.82-.83-1.44v-9.84c.65-.6,1.65-.9,2.99-.9.69,0,1.28.15,1.76.44.55.35.82.86.82,1.55Z"/>
        <text class="cls-7" transform="translate(17.69 20.54)"><tspan x="0" y="0">K</tspan></text>
        <text class="cls-5" transform="translate(17.69 20.54)"><tspan x="0" y="0">K</tspan></text>
      </g>
      <g>
        <text class="cls-4" transform="translate(31.34 17.66) rotate(5.45)"><tspan x="0" y="0">R</tspan></text>
        <path class="cls-18" d="M42.29,14.07l1.48,1.84c-.21.98-.59,1.71-1.15,2.19-.56.48-1.29.68-2.19.6-.68-.06-1.25-.28-1.72-.65-.6-.47-1.02-1.16-1.25-2.07l-.25-.96c-.27-.03-.6-.1-1-.2-.06.05-.09.11-.1.2-.02.17.23.3.74.38l.41,1.42-.08.81c-.78.44-1.74.61-2.88.5-.82-.08-1.45-.31-1.91-.69-.46-.38-.65-.89-.59-1.53l.86-9.02c.03-.28.31-.52.85-.74.54-.21,1.23-.36,2.07-.44.84-.08,1.68-.08,2.51,0,1.9.18,3.35.71,4.34,1.59,1.05.92,1.5,2.13,1.36,3.61-.08.85-.39,1.55-.92,2.11-.54.56-1.18.92-1.93,1.09-.02.2.09.32.34.34.24.02.58-.09,1-.35ZM37.59,11.44s.1.04.22.05c.12.01.22-.03.29-.12.07-.09.12-.24.14-.46l.03-.34c.02-.23.01-.39-.03-.5-.04-.1-.13-.16-.25-.17-.12-.01-.21,0-.26.01,0,.03,0,.09,0,.16l-.13,1.36Z"/>
        <text class="cls-9" transform="translate(31.34 17.66) rotate(5.45)"><tspan x="0" y="0">R</tspan></text>
        <text class="cls-15" transform="translate(31.34 17.66) rotate(5.45)"><tspan x="0" y="0">R</tspan></text>
      </g>
      <g>
        <text class="cls-13" transform="translate(45.98 22.62) rotate(-2.61)"><tspan x="0" y="0">I</tspan></text>
        <path class="cls-17" d="M51.37,11.78l.45,9.84c-.28.27-.66.5-1.14.69-.48.19-1.07.31-1.77.34-.7.03-1.3-.1-1.8-.39-.57-.31-.87-.77-.89-1.39l-.45-9.84c.28-.27.66-.5,1.14-.69.48-.19,1.07-.31,1.76-.34.69-.03,1.3.09,1.82.38.56.32.86.79.88,1.4Z"/>
        <text class="cls-12" transform="translate(45.98 22.62) rotate(-2.61)"><tspan x="0" y="0">I</tspan></text>
        <text class="cls-14" transform="translate(45.98 22.62) rotate(-2.61)"><tspan x="0" y="0">I</tspan></text>
      </g>
      <g>
        <text class="cls-11" transform="translate(68.11 20.54) rotate(-2.61)"><tspan x="0" y="0">B</tspan></text>
        <path class="cls-19" d="M67.92,9.54c0-.14.11-.32.34-.51.49-.41,1.37-.75,2.65-1.03.66-.14,1.39-.23,2.19-.26,1.9-.09,3.36.22,4.38.91.89.61,1.35,1.44,1.4,2.49.02.38-.03.76-.15,1.13-.12.37-.29.65-.53.85-.34-.16-.67-.23-.98-.21-.15,0-.26.04-.33.1-.07.06-.11.17-.1.32.94,0,1.68.3,2.23.91.49.56.75,1.26.79,2.12.06,1.33-.45,2.32-1.54,2.97-1.02.61-2.57.97-4.67,1.06-1.47.07-2.55.07-3.24,0-.69-.06-1.2-.26-1.52-.59-.32-.33-.5-.84-.53-1.54l-.4-8.74ZM73.26,12.97s.1.02.22.02c.12,0,.21-.06.27-.16.06-.1.08-.26.07-.47v-.06c-.01-.23-.05-.39-.11-.49-.06-.1-.15-.14-.27-.14-.12,0-.21.02-.25.05,0,.03.01.09.02.16l.05,1.08ZM73.42,16.57s.1.02.22.02c.12,0,.21-.05.27-.14.06-.09.08-.23.08-.44v-.18c-.02-.23-.05-.4-.11-.5-.06-.1-.15-.15-.27-.14-.12,0-.21.02-.25.05,0,.03.01.09.02.16l.05,1.17Z"/>
        <text class="cls-12" transform="translate(68.11 20.54) rotate(-2.61)"><tspan x="0" y="0">B</tspan></text>
        <text class="cls-14" transform="translate(68.11 20.54) rotate(-2.61)"><tspan x="0" y="0">B</tspan></text>
      </g>
      <g>
        <text class="cls-10" transform="translate(54.28 22.62)"><tspan x="0" y="0">B</tspan></text>
        <path class="cls-22" d="M54.58,11.62c0-.15.12-.31.36-.5.51-.39,1.41-.69,2.69-.91.67-.11,1.4-.16,2.2-.16,1.91,0,3.35.37,4.33,1.11.86.65,1.29,1.5,1.29,2.56,0,.38-.07.75-.2,1.12-.13.37-.32.64-.57.82-.34-.17-.66-.26-.97-.26-.15,0-.26.03-.33.09-.08.06-.11.16-.11.31.93.04,1.66.38,2.18,1.01.46.58.7,1.3.7,2.16,0,1.33-.56,2.3-1.67,2.9-1.04.57-2.61.85-4.71.85-1.47,0-2.55-.05-3.23-.14-.69-.09-1.18-.31-1.49-.65-.31-.34-.46-.86-.46-1.56v-8.75ZM59.76,15.29s.1.03.22.03.21-.05.28-.14c.06-.1.1-.25.1-.47v-.06c0-.23-.03-.39-.08-.49-.05-.1-.14-.15-.27-.15s-.21.01-.25.04c0,.03,0,.09,0,.16v1.08ZM59.76,18.89s.1.03.22.03.21-.04.28-.12c.06-.08.1-.23.1-.44v-.18c0-.24-.03-.4-.08-.51-.05-.1-.14-.15-.27-.15s-.21.01-.25.04c0,.03,0,.09,0,.16v1.17Z"/>
        <text class="cls-7" transform="translate(54.28 22.62)"><tspan x="0" y="0">B</tspan></text>
        <text class="cls-5" transform="translate(54.28 22.62)"><tspan x="0" y="0">B</tspan></text>
      </g>
      <g>
        <text class="cls-2" transform="translate(81.12 24.52) rotate(5.45)"><tspan x="0" y="0">L</tspan></text>
        <path class="cls-21" d="M83.63,24.77c-.7-.07-1.23-.31-1.57-.72-.35-.41-.48-.99-.41-1.74l.89-9.29c.36-.25.79-.43,1.29-.54.5-.11,1.01-.14,1.53-.09.77.07,1.4.32,1.89.76.54.49.77,1.11.69,1.87l-.5,5.19c-.36,0-.72.06-1.07.2-.36.14-.55.29-.56.47-.01.11.04.21.15.29.68-.47,1.63-.64,2.87-.52l2.25.21c.35.77.49,1.54.41,2.31-.04.38-.14.79-.32,1.24-.18.45-.39.79-.63,1.01l-6.9-.66Z"/>
        <text class="cls-9" transform="translate(81.12 24.52) rotate(5.45)"><tspan x="0" y="0">L</tspan></text>
        <text class="cls-15" transform="translate(81.12 24.52) rotate(5.45)"><tspan x="0" y="0">L</tspan></text>
      </g>
      <g>
        <text class="cls-3" transform="translate(95.76 34.51) rotate(-13)"><tspan x="0" y="0">E</tspan></text>
        <path class="cls-20" d="M97.47,21.49l5.36-1.24c.25.26.46.55.62.88.17.33.28.63.35.91.15.63.13,1.13-.04,1.5-.17.37-.48.61-.92.71l-3.75.86c-.23.05-.32.17-.28.35l.02.07s.02.06.04.07l4.44-1.03c.16.17.31.39.46.66.15.3.25.57.31.82.17.74.17,1.34,0,1.82l-2.02.47c-.94.22-1.57.4-1.89.55-.32.15-.51.26-.58.32-.07.08-.09.16-.07.24.02.09.08.14.18.17.3-.18.62-.33.96-.46.46-.15.95-.29,1.5-.41l2.61-.6c.5.44.84,1.04,1.01,1.79.1.42.14.84.12,1.24-.02.41-.1.75-.26,1.04l-6.96,1.61c-.77.18-1.43.13-1.98-.13-.6-.28-.99-.8-1.17-1.57l-2.04-8.84c-.07-.3.22-.59.87-.89.65-.29,1.69-.6,3.11-.93Z"/>
        <text class="cls-1" transform="translate(95.76 34.51) rotate(-13)"><tspan x="0" y="0">E</tspan></text>
        <text class="cls-8" transform="translate(95.76 34.51) rotate(-13)"><tspan x="0" y="0">E</tspan></text>
      </g>
    </g>
  </g>
</svg>