<?xml version="1.0" encoding="UTF-8"?>
<svg xmlns="http://www.w3.org/2000/svg" version="1.1" xmlns:xlink="http://www.w3.org/1999/xlink" viewBox="0 0 360 143.66">
  <defs>
    <style>
      .cls-1 {
        fill: url(#linear-gradient-15);
      }

      .cls-2 {
        fill: url(#linear-gradient-13);
      }

      .cls-3, .cls-4, .cls-5, .cls-6, .cls-7, .cls-8, .cls-9, .cls-10, .cls-11, .cls-12, .cls-13, .cls-14, .cls-15, .cls-16, .cls-17, .cls-18, .cls-19, .cls-20, .cls-21, .cls-22, .cls-23, .cls-24, .cls-25, .cls-26, .cls-27, .cls-28, .cls-29, .cls-30, .cls-31, .cls-32 {
        font-family: Modak, Modak;
        stroke-miterlimit: 10;
      }

      .cls-3, .cls-4, .cls-5, .cls-6, .cls-7, .cls-9, .cls-10, .cls-11, .cls-12, .cls-13, .cls-14, .cls-15, .cls-16, .cls-18, .cls-19, .cls-23, .cls-25, .cls-26, .cls-27, .cls-30, .cls-31, .cls-32 {
        stroke: #231f20;
      }

      .cls-3, .cls-4, .cls-5, .cls-6, .cls-7, .cls-10, .cls-11, .cls-12, .cls-14, .cls-15, .cls-16, .cls-25, .cls-30, .cls-31 {
        stroke-width: 3px;
      }

      .cls-3, .cls-7, .cls-10, .cls-12, .cls-16, .cls-25 {
        fill: #0db8a1;
      }

      .cls-3, .cls-19, .cls-20, .cls-30 {
        font-size: 76.64px;
      }

      .cls-4, .cls-6, .cls-21, .cls-32 {
        font-size: 81.32px;
      }

      .cls-4, .cls-15 {
        fill: #0092b3;
      }

      .cls-5, .cls-6, .cls-11, .cls-14, .cls-30, .cls-31 {
        fill: #f175ad;
      }

      .cls-5, .cls-15, .cls-24, .cls-27 {
        font-size: 76.64px;
      }

      .cls-33 {
        fill: url(#linear-gradient-2);
      }

      .cls-34 {
        fill: url(#linear-gradient-10);
      }

      .cls-35 {
        fill: url(#linear-gradient-12);
      }

      .cls-7, .cls-9, .cls-22, .cls-31 {
        font-size: 76.64px;
      }

      .cls-8, .cls-9, .cls-13, .cls-17, .cls-18, .cls-19, .cls-20, .cls-21, .cls-22, .cls-23, .cls-24, .cls-26, .cls-27, .cls-28, .cls-29, .cls-32 {
        fill: none;
      }

      .cls-8, .cls-11, .cls-13, .cls-16 {
        font-size: 81.32px;
      }

      .cls-8, .cls-17, .cls-20, .cls-21, .cls-22, .cls-24, .cls-28, .cls-29 {
        stroke: #fff;
      }

      .cls-8, .cls-21, .cls-28, .cls-29 {
        stroke-width: 4px;
      }

      .cls-9, .cls-19, .cls-23, .cls-27 {
        stroke-width: .25px;
      }

      .cls-10, .cls-14, .cls-26, .cls-28 {
        font-size: 81.31px;
      }

      .cls-12, .cls-18, .cls-29 {
        font-size: 81.23px;
      }

      .cls-36 {
        fill: url(#linear-gradient-4);
      }

      .cls-37 {
        fill: url(#linear-gradient-3);
      }

      .cls-38 {
        fill: url(#linear-gradient-5);
      }

      .cls-17, .cls-20, .cls-22, .cls-24 {
        stroke-width: .5px;
      }

      .cls-17, .cls-23, .cls-25 {
        font-size: 76.64px;
      }

      .cls-39 {
        fill: url(#linear-gradient-8);
      }

      .cls-40 {
        fill: url(#linear-gradient-14);
      }

      .cls-41 {
        fill: url(#linear-gradient-7);
      }

      .cls-42 {
        fill: url(#linear-gradient-9);
      }

      .cls-43 {
        fill: url(#linear-gradient-11);
      }

      .cls-44 {
        fill: url(#linear-gradient-6);
      }

      .cls-45 {
        display: none;
      }

      .cls-46 {
        fill: url(#linear-gradient-16);
      }

      .cls-47 {
        fill: url(#linear-gradient);
      }
    </style>
    <linearGradient id="linear-gradient" x1="3.73" y1="38.18" x2="50.31" y2="38.18" gradientUnits="userSpaceOnUse">
      <stop offset="0" stop-color="#0092b3"/>
      <stop offset=".3" stop-color="#0192b0"/>
      <stop offset=".48" stop-color="#0595a8"/>
      <stop offset=".63" stop-color="#0c9a99"/>
      <stop offset=".76" stop-color="#16a085"/>
      <stop offset=".88" stop-color="#22a96b"/>
      <stop offset=".99" stop-color="#32b34b"/>
      <stop offset="1" stop-color="#33b44a"/>
    </linearGradient>
    <linearGradient id="linear-gradient-2" x1="51.84" y1="49.42" x2="100.35" y2="49.42" xlink:href="#linear-gradient"/>
    <linearGradient id="linear-gradient-3" x1="97.6" y1="44.69" x2="146.51" y2="44.69" xlink:href="#linear-gradient"/>
    <linearGradient id="linear-gradient-4" x1="145.86" y1="58.3" x2="170.49" y2="58.3" xlink:href="#linear-gradient"/>
    <linearGradient id="linear-gradient-5" x1="216.28" y1="55.27" x2="264.61" y2="55.27" xlink:href="#linear-gradient"/>
    <linearGradient id="linear-gradient-6" x1="174.37" y1="61.4" x2="221.37" y2="61.4" xlink:href="#linear-gradient"/>
    <linearGradient id="linear-gradient-7" x1="261.37" y1="68.98" x2="301.55" y2="68.98" xlink:href="#linear-gradient"/>
    <linearGradient id="linear-gradient-8" x1="302.42" y1="103.12" x2="352.91" y2="103.12" xlink:href="#linear-gradient"/>
    <linearGradient id="linear-gradient-9" x1="3.81" y1="37.51" x2="48.76" y2="37.51" gradientUnits="userSpaceOnUse">
      <stop offset="0" stop-color="#0db8a1"/>
      <stop offset=".42" stop-color="#0cb5a2"/>
      <stop offset=".67" stop-color="#09ada6"/>
      <stop offset=".88" stop-color="#049eac"/>
      <stop offset="1" stop-color="#0092b3"/>
    </linearGradient>
    <linearGradient id="linear-gradient-10" x1="53.04" y1="48.77" x2="99.86" y2="48.77" xlink:href="#linear-gradient-9"/>
    <linearGradient id="linear-gradient-11" x1="97.53" y1="43.36" x2="144.74" y2="43.36" xlink:href="#linear-gradient-9"/>
    <linearGradient id="linear-gradient-12" x1="145.89" y1="56.42" x2="169.67" y2="56.42" xlink:href="#linear-gradient-9"/>
    <linearGradient id="linear-gradient-13" x1="216.31" y1="55.76" x2="262.95" y2="55.76" xlink:href="#linear-gradient-9"/>
    <linearGradient id="linear-gradient-14" x1="175.57" y1="60.03" x2="220.92" y2="60.03" xlink:href="#linear-gradient-9"/>
    <linearGradient id="linear-gradient-15" x1="261.3" y1="68.39" x2="300.07" y2="68.39" xlink:href="#linear-gradient-9"/>
    <linearGradient id="linear-gradient-16" x1="303.08" y1="101.65" x2="351.81" y2="101.65" xlink:href="#linear-gradient-9"/>
  </defs>
  <!-- Generator: Adobe Illustrator 28.6.0, SVG Export Plug-In . SVG Version: 1.2.0 Build 709)  -->
  <g>
    <g id="Layer_1" class="cls-45">
      <text/>
      <g>
        <text class="cls-4" transform="translate(3.66 63.77) scale(.98 1)"><tspan x="0" y="0">S</tspan></text>
        <path class="cls-47" d="M25.76,49.32c.85-.16,1.28-.6,1.28-1.33s-.23-1.55-.68-2.46c-.45-.91-1.12-1.78-2-2.6-2.3-2.12-5.42-3.18-9.35-3.18-1.94,0-3.75.33-5.43.99-1.78-.93-3.21-2.4-4.27-4.41-1.06-2.01-1.59-4.18-1.59-6.51,0-6.09,2.48-10.79,7.45-14.1,4.27-2.83,9.53-4.25,15.78-4.25,4.65,0,8.57.51,11.75,1.53,3.18,1.02,5.78,2.32,7.79,3.91.59,1.75.89,3.56.89,5.44s-.25,3.59-.74,5.12c-.49,1.54-1.2,2.77-2.13,3.69-.88-.66-2.47-1.34-4.77-2.03-2.3-.69-4.4-1.03-6.28-1.03s-3.15.12-3.78.36c-.63.24-.95.61-.95,1.11,0,.24.04.46.12.67.9-.24,2.07-.36,3.49-.36,5.04,0,9.15,1.22,12.33,3.65,3.75,2.91,5.62,7.28,5.62,13.1,0,5.14-2.03,9.4-6.09,12.79-4.4,3.63-10.3,5.44-17.72,5.44-4.09,0-7.63-.31-10.63-.93-3-.62-5.92-1.71-8.76-3.28-1.94-2.89-2.91-5.82-2.91-8.8s.99-5.45,2.99-7.41c1.99-1.96,4.44-2.94,7.35-2.94s5.29.61,7.14,1.83c1.85,1.22,3.21,3.2,4.09,5.96Z"/>
        <text class="cls-21" transform="translate(3.66 63.77) scale(.98 1)"><tspan x="0" y="0">S</tspan></text>
        <text class="cls-32" transform="translate(3.66 63.77) scale(.98 1)"><tspan x="0" y="0">S</tspan></text>
      </g>
      <g>
        <text class="cls-4" transform="translate(50.6 75.07) scale(.98 1)"><tspan x="0" y="0">K</tspan></text>
        <path class="cls-33" d="M74.49,31.39v1.79c-1.03,2.2-1.82,3.91-2.37,5.14-.54,1.23-.81,2.07-.81,2.52,0,.77.43,1.15,1.28,1.15l7.64-17.15c1.78-1.19,4.22-1.79,7.31-1.79s5.75.87,7.97,2.62c2.43,1.96,3.65,4.63,3.65,8.02,0,2.83-.94,5.62-2.83,8.36-1.89,2.74-4.36,5.12-7.41,7.13-1.42-.82-2.7-1.23-3.84-1.23s-1.71.57-1.71,1.71c1.19.24,2.27.58,3.24,1.01.97.44,2.11,1.28,3.43,2.52l10.31,9.73c-.75,8.58-4.94,12.87-12.56,12.87-2.82,0-5.23-.74-7.25-2.22-2.38-1.72-4.24-4.34-5.58-7.86l-3.61-9.21h-.19c-.85,0-1.28.37-1.28,1.11,0,.48.36,1.63,1.09,3.45.72,1.99,1.81,4.63,3.26,7.94v3.06c-2.71,2.49-6.66,3.73-11.83,3.73-2.79,0-5.18-.65-7.17-1.95-2.25-1.4-3.37-3.4-3.37-6V26.86c2.66-2.49,6.71-3.73,12.14-3.73,2.82,0,5.21.61,7.17,1.83,2.22,1.46,3.33,3.6,3.33,6.43Z"/>
        <text class="cls-21" transform="translate(50.6 75.07) scale(.98 1)"><tspan x="0" y="0">K</tspan></text>
        <text class="cls-32" transform="translate(50.6 75.07) scale(.98 1)"><tspan x="0" y="0">K</tspan></text>
      </g>
      <g>
        <text class="cls-14" transform="translate(95.71 67.53) rotate(5.58) scale(.98 1) skewX(.26)"><tspan x="0" y="0">R</tspan></text>
        <path class="cls-37" d="M140.23,52.61l6.03,7.65c-.85,4.07-2.41,7.1-4.69,9.12-2.28,2.01-5.24,2.84-8.9,2.48-2.75-.27-5.08-1.18-6.99-2.72-2.44-1.94-4.13-4.82-5.08-8.63l-1.03-4.01c-1.08-.13-2.43-.41-4.05-.83-.22.19-.35.47-.39.84-.07.71.94,1.24,3.01,1.57l1.67,5.91-.31,3.36c-3.16,1.85-7.05,2.54-11.69,2.09-3.32-.32-5.91-1.28-7.76-2.87-1.85-1.59-2.65-3.72-2.4-6.38l3.5-37.55c.11-1.16,1.25-2.18,3.44-3.07,2.19-.89,5-1.51,8.43-1.85,3.43-.34,6.84-.35,10.21-.02,7.72.75,13.6,2.96,17.65,6.63,4.26,3.85,6.11,8.85,5.54,15.02-.33,3.53-1.58,6.46-3.76,8.79-2.18,2.33-4.79,3.83-7.84,4.52-.08.84.38,1.31,1.37,1.41.99.1,2.34-.38,4.05-1.44ZM121.15,41.65c.09.09.39.16.88.21.49.05.88-.11,1.18-.48.29-.37.48-1,.57-1.9l.13-1.42c.09-.95.04-1.64-.14-2.07-.18-.43-.52-.67-1.02-.72-.5-.05-.85-.03-1.04.06.01.13,0,.36-.02.68l-.53,5.65Z"/>
        <text class="cls-28" transform="translate(95.71 67.53) rotate(5.58) scale(.98 1) skewX(.26)"><tspan x="0" y="0">R</tspan></text>
        <text class="cls-26" transform="translate(95.71 67.53) rotate(5.58) scale(.98 1) skewX(.26)"><tspan x="0" y="0">R</tspan></text>
      </g>
      <g>
        <text class="cls-11" transform="translate(146.77 84.47) rotate(-2.68) scale(.98 1) skewX(-.13)"><tspan x="0" y="0">I</tspan></text>
        <path class="cls-36" d="M168.67,39.36l1.83,40.98c-1.14,1.11-2.69,2.07-4.65,2.88-1.96.81-4.36,1.28-7.2,1.41-2.84.13-5.28-.4-7.33-1.6-2.31-1.3-3.52-3.23-3.64-5.79l-1.83-40.98c1.14-1.11,2.69-2.07,4.65-2.88,1.96-.81,4.34-1.28,7.16-1.41,2.81-.13,5.28.39,7.41,1.56,2.29,1.35,3.49,3.29,3.6,5.83Z"/>
        <text class="cls-8" transform="translate(146.77 84.47) rotate(-2.68) scale(.98 1) skewX(-.13)"><tspan x="0" y="0">I</tspan></text>
        <text class="cls-13" transform="translate(146.77 84.47) rotate(-2.68) scale(.98 1) skewX(-.13)"><tspan x="0" y="0">I</tspan></text>
      </g>
      <g>
        <text class="cls-16" transform="translate(217.08 82.14) rotate(-2.68) scale(.98 1) skewX(-.13)"><tspan x="0" y="0">B</tspan></text>
        <path class="cls-38" d="M216.28,36.34c-.03-.61.43-1.32,1.38-2.13,1.99-1.71,5.58-3.14,10.76-4.28,2.69-.58,5.66-.94,8.92-1.09,7.75-.36,13.68.9,17.79,3.78,3.61,2.54,5.51,6,5.7,10.39.07,1.59-.13,3.15-.61,4.7s-1.2,2.73-2.17,3.54c-1.4-.65-2.73-.95-4-.89-.59.03-1.04.17-1.34.42-.3.25-.43.7-.41,1.33,3.8-.02,6.82,1.24,9.06,3.79,1.99,2.32,3.07,5.26,3.23,8.83.25,5.53-1.83,9.65-6.24,12.38-4.13,2.55-10.46,4.03-18.98,4.43-5.97.28-10.35.29-13.16.04-2.81-.25-4.86-1.06-6.16-2.43-1.3-1.37-2.02-3.51-2.15-6.42l-1.62-36.38ZM237.99,50.63c.11.08.41.1.9.08s.86-.24,1.1-.65c.24-.41.34-1.06.3-1.96v-.24c-.05-.95-.19-1.63-.43-2.03-.24-.4-.61-.59-1.11-.56-.5.02-.84.09-1.02.21.03.13.05.36.07.67l.2,4.48ZM238.66,65.59c.11.07.41.1.9.08s.86-.21,1.1-.57c.24-.35.35-.97.31-1.84l-.03-.75c-.04-.98-.18-1.67-.42-2.09-.24-.41-.61-.61-1.11-.58-.5.02-.84.09-1.02.21.03.13.05.36.07.67l.22,4.88Z"/>
        <text class="cls-8" transform="translate(217.08 82.14) rotate(-2.68) scale(.98 1) skewX(-.13)"><tspan x="0" y="0">B</tspan></text>
        <text class="cls-13" transform="translate(217.08 82.14) rotate(-2.68) scale(.98 1) skewX(-.13)"><tspan x="0" y="0">B</tspan></text>
      </g>
      <g>
        <text class="cls-6" transform="translate(173.13 87.32) scale(.98 1)"><tspan x="0" y="0">B</tspan></text>
        <path class="cls-44" d="M174.37,41.54c0-.61.49-1.3,1.47-2.06,2.07-1.61,5.71-2.87,10.94-3.77,2.71-.45,5.7-.68,8.96-.68,7.76,0,13.62,1.54,17.61,4.61,3.49,2.7,5.23,6.25,5.23,10.64,0,1.59-.27,3.14-.81,4.67-.54,1.52-1.32,2.67-2.33,3.43-1.37-.71-2.69-1.07-3.96-1.07-.6,0-1.05.12-1.36.36s-.46.67-.46,1.31c3.8.16,6.76,1.56,8.88,4.21,1.89,2.41,2.83,5.4,2.83,8.97,0,5.53-2.26,9.56-6.79,12.07-4.24,2.36-10.62,3.53-19.16,3.53-5.97,0-10.35-.19-13.14-.58-2.79-.38-4.81-1.29-6.05-2.72-1.24-1.43-1.86-3.6-1.86-6.51v-36.41ZM195.42,56.83c.1.08.4.12.89.12s.87-.2,1.12-.6c.26-.4.39-1.05.39-1.95v-.24c0-.95-.11-1.63-.33-2.04-.22-.41-.58-.62-1.09-.62s-.85.05-1.03.16c.03.13.04.36.04.67v4.49ZM195.42,71.8c.1.08.4.12.89.12s.87-.17,1.12-.52c.26-.34.39-.95.39-1.83v-.75c0-.98-.11-1.68-.33-2.1-.22-.42-.58-.64-1.09-.64s-.85.05-1.03.16c.03.13.04.36.04.68v4.88Z"/>
        <text class="cls-21" transform="translate(173.13 87.32) scale(.98 1)"><tspan x="0" y="0">B</tspan></text>
        <text class="cls-32" transform="translate(173.13 87.32) scale(.98 1)"><tspan x="0" y="0">B</tspan></text>
      </g>
      <g>
        <text class="cls-10" transform="translate(259.34 92.39) rotate(5.58) scale(.98 1) skewX(.26)"><tspan x="0" y="0">L</tspan></text>
        <path class="cls-41" d="M269.53,93.43c-2.86-.28-4.99-1.27-6.4-2.98-1.41-1.71-1.97-4.13-1.68-7.26l3.6-38.66c1.47-1.05,3.23-1.81,5.25-2.26,2.03-.45,4.1-.58,6.21-.37,3.11.3,5.68,1.35,7.69,3.15,2.17,2.02,3.11,4.61,2.82,7.77l-2.01,21.62c-1.45,0-2.91.27-4.36.83-1.46.56-2.22,1.21-2.29,1.95-.04.45.17.85.63,1.22,2.75-1.94,6.64-2.66,11.66-2.17l9.15.89c1.41,3.22,1.97,6.43,1.68,9.62-.15,1.58-.58,3.31-1.3,5.18-.72,1.87-1.58,3.28-2.57,4.22l-28.06-2.74Z"/>
        <text class="cls-28" transform="translate(259.34 92.39) rotate(5.58) scale(.98 1) skewX(.26)"><tspan x="0" y="0">L</tspan></text>
        <text class="cls-26" transform="translate(259.34 92.39) rotate(5.58) scale(.98 1) skewX(.26)"><tspan x="0" y="0">L</tspan></text>
      </g>
      <g>
        <text class="cls-12" transform="translate(311.71 133.96) rotate(-13.31) scale(.98 1) skewX(-.61)"><tspan x="0" y="0">E</tspan></text>
        <path class="cls-39" d="M318.66,79.74l21.8-5.16c1.01,1.07,1.85,2.29,2.54,3.66.68,1.37,1.15,2.64,1.41,3.8.59,2.61.53,4.68-.17,6.23s-1.94,2.54-3.73,2.96l-15.23,3.6c-.93.22-1.31.71-1.14,1.45l.07.31c.04.16.08.25.15.29l18.06-4.27c.63.69,1.25,1.61,1.85,2.74.6,1.24,1.01,2.38,1.25,3.41.69,3.07.68,5.6-.04,7.59l-8.2,1.94c-3.83.91-6.39,1.67-7.68,2.29-1.29.62-2.08,1.07-2.36,1.35-.28.31-.37.65-.29,1.01.08.36.32.6.72.73,1.21-.75,2.51-1.38,3.91-1.9,1.85-.63,3.88-1.2,6.1-1.73l10.62-2.51c2.04,1.86,3.41,4.34,4.11,7.46.4,1.75.56,3.48.49,5.18-.07,1.7-.42,3.14-1.05,4.33l-28.3,6.69c-3.12.74-5.8.56-8.04-.54-2.44-1.16-4.02-3.34-4.74-6.54l-8.3-36.79c-.28-1.24.9-2.47,3.54-3.69,2.64-1.22,6.86-2.52,12.65-3.89Z"/>
        <text class="cls-29" transform="translate(311.71 133.96) rotate(-13.31) scale(.98 1) skewX(-.61)"><tspan x="0" y="0">E</tspan></text>
        <text class="cls-18" transform="translate(311.71 133.96) rotate(-13.31) scale(.98 1) skewX(-.61)"><tspan x="0" y="0">E</tspan></text>
      </g>
    </g>
    <g id="Layer_2">
      <text/>
      <g>
        <text class="cls-15" transform="translate(3.73 61.63)"><tspan x="0" y="0">S</tspan></text>
        <path class="cls-42" d="M25.07,48.01c.82-.15,1.24-.57,1.24-1.25s-.22-1.46-.66-2.32-1.08-1.68-1.93-2.45c-2.22-2-5.23-2.99-9.02-2.99-1.87,0-3.62.31-5.24.94-1.72-.87-3.09-2.26-4.12-4.15-1.02-1.9-1.53-3.94-1.53-6.14,0-5.74,2.4-10.17,7.19-13.29,4.12-2.67,9.19-4,15.23-4,4.49,0,8.27.48,11.34,1.44,3.07.96,5.58,2.19,7.52,3.69.57,1.65.86,3.36.86,5.13s-.24,3.38-.71,4.83c-.47,1.45-1.16,2.61-2.06,3.48-.85-.62-2.38-1.26-4.6-1.91-2.22-.65-4.24-.97-6.06-.97s-3.04.11-3.65.34c-.61.22-.92.57-.92,1.05,0,.22.04.44.11.64.87-.22,2-.34,3.37-.34,4.87,0,8.83,1.15,11.9,3.44,3.62,2.74,5.43,6.86,5.43,12.35,0,4.84-1.96,8.86-5.88,12.05-4.24,3.42-9.94,5.13-17.1,5.13-3.94,0-7.36-.29-10.25-.88-2.89-.59-5.71-1.62-8.46-3.09-1.87-2.72-2.81-5.48-2.81-8.29s.96-5.13,2.88-6.98c1.92-1.85,4.28-2.77,7.09-2.77s5.1.57,6.89,1.72c1.78,1.15,3.1,3.02,3.95,5.61Z"/>
        <text class="cls-27" transform="translate(3.73 61.63)"><tspan x="0" y="0">S</tspan></text>
        <text class="cls-24" transform="translate(3.73 61.63)"><tspan x="0" y="0">S</tspan></text>
      </g>
      <g>
        <text class="cls-15" transform="translate(51.84 72.94)"><tspan x="0" y="0">K</tspan></text>
        <path class="cls-34" d="M74.9,31.78v1.68c-1,2.07-1.76,3.69-2.28,4.85s-.79,1.95-.79,2.38c0,.72.41,1.08,1.23,1.08l7.37-16.17c1.72-1.12,4.07-1.68,7.05-1.68s5.54.82,7.69,2.47c2.34,1.85,3.52,4.37,3.52,7.56,0,2.67-.91,5.3-2.73,7.88-1.82,2.58-4.2,4.82-7.15,6.72-1.37-.77-2.61-1.16-3.71-1.16s-1.65.54-1.65,1.61c1.15.22,2.19.54,3.12.95s2.04,1.2,3.31,2.38l9.96,9.17c-.72,8.08-4.77,12.13-12.13,12.13-2.72,0-5.05-.7-7-2.1-2.3-1.62-4.09-4.09-5.39-7.41l-3.48-8.68h-.19c-.82,0-1.23.35-1.23,1.05,0,.45.35,1.53,1.05,3.26.7,1.87,1.75,4.37,3.14,7.48v2.88c-2.62,2.35-6.42,3.52-11.41,3.52-2.69,0-5-.61-6.92-1.83-2.17-1.32-3.26-3.21-3.26-5.65V27.51c2.57-2.34,6.47-3.52,11.71-3.52,2.72,0,5.03.57,6.92,1.72,2.15,1.37,3.22,3.39,3.22,6.06Z"/>
        <text class="cls-27" transform="translate(51.84 72.94)"><tspan x="0" y="0">K</tspan></text>
        <text class="cls-24" transform="translate(51.84 72.94)"><tspan x="0" y="0">K</tspan></text>
      </g>
      <g>
        <text class="cls-31" transform="translate(95.71 64.89) rotate(5.45)"><tspan x="0" y="0">R</tspan></text>
        <path class="cls-43" d="M138.67,50.83l5.82,7.21c-.82,3.83-2.32,6.7-4.52,8.59-2.2,1.9-5.06,2.68-8.59,2.34-2.66-.25-4.91-1.11-6.75-2.56-2.36-1.83-3.99-4.54-4.9-8.14l-.99-3.78c-1.04-.12-2.34-.39-3.91-.79-.22.18-.34.44-.38.79-.06.67.9,1.16,2.9,1.48l1.61,5.57-.3,3.17c-3.05,1.74-6.81,2.4-11.28,1.97-3.2-.31-5.7-1.21-7.49-2.71s-2.56-3.5-2.32-6.01l3.38-35.39c.1-1.09,1.21-2.06,3.32-2.9,2.11-.84,4.82-1.42,8.14-1.74,3.31-.32,6.6-.33,9.85-.02,7.45.71,13.13,2.79,17.04,6.25,4.12,3.63,5.9,8.34,5.34,14.16-.32,3.33-1.53,6.09-3.63,8.28-2.1,2.19-4.62,3.61-7.57,4.26-.08.79.36,1.24,1.32,1.33.96.09,2.26-.36,3.91-1.36ZM120.26,40.5c.09.08.37.15.85.19.47.04.85-.11,1.13-.46.28-.35.47-.95.55-1.79l.13-1.34c.09-.89.04-1.54-.13-1.95-.18-.4-.5-.63-.99-.68-.49-.05-.82-.03-1,.05.01.13,0,.34-.02.64l-.51,5.33Z"/>
        <text class="cls-9" transform="translate(95.71 64.89) rotate(5.45)"><tspan x="0" y="0">R</tspan></text>
        <text class="cls-22" transform="translate(95.71 64.89) rotate(5.45)"><tspan x="0" y="0">R</tspan></text>
      </g>
      <g>
        <text class="cls-30" transform="translate(146.77 81.09) rotate(-2.61)"><tspan x="0" y="0">I</tspan></text>
        <path class="cls-35" d="M167.9,38.58l1.76,38.62c-1.1,1.05-2.6,1.95-4.48,2.71-1.89.76-4.2,1.2-6.94,1.33-2.74.12-5.1-.38-7.07-1.51-2.23-1.22-3.4-3.04-3.51-5.46l-1.76-38.62c1.1-1.05,2.6-1.95,4.48-2.71,1.89-.76,4.19-1.2,6.91-1.33,2.72-.12,5.1.37,7.15,1.47,2.21,1.27,3.36,3.11,3.47,5.5Z"/>
        <text class="cls-19" transform="translate(146.77 81.09) rotate(-2.61)"><tspan x="0" y="0">I</tspan></text>
        <text class="cls-20" transform="translate(146.77 81.09) rotate(-2.61)"><tspan x="0" y="0">I</tspan></text>
      </g>
      <g>
        <text class="cls-3" transform="translate(217.08 81.09) rotate(-2.61)"><tspan x="0" y="0">B</tspan></text>
        <path class="cls-2" d="M216.31,37.93c-.03-.57.42-1.24,1.33-2.01,1.92-1.61,5.38-2.96,10.38-4.03,2.6-.54,5.47-.89,8.61-1.03,7.48-.34,13.2.85,17.17,3.56,3.48,2.39,5.32,5.65,5.5,9.79.07,1.5-.13,2.97-.58,4.43-.46,1.46-1.16,2.57-2.1,3.34-1.35-.61-2.64-.89-3.86-.84-.57.03-1,.16-1.29.4s-.42.66-.39,1.25c3.67-.02,6.58,1.17,8.74,3.57,1.92,2.18,2.96,4.96,3.12,8.32.24,5.21-1.77,9.1-6.02,11.66-3.99,2.4-10.09,3.79-18.32,4.17-5.76.26-9.99.27-12.7.04-2.71-.24-4.69-1-5.95-2.29s-1.95-3.31-2.07-6.05l-1.57-34.28ZM237.26,51.4c.1.07.39.09.86.07.47-.02.83-.23,1.06-.61.23-.39.33-1,.29-1.85v-.22c-.05-.9-.19-1.53-.42-1.91-.23-.38-.59-.55-1.07-.53-.49.02-.81.09-.98.2.03.12.05.34.07.63l.19,4.22ZM237.91,65.49c.1.07.39.09.86.07.47-.02.83-.2,1.06-.54.23-.33.33-.91.3-1.74l-.03-.71c-.04-.92-.18-1.58-.41-1.97-.23-.39-.59-.57-1.07-.55-.49.02-.81.09-.98.19.03.12.05.33.07.63l.21,4.6Z"/>
        <text class="cls-19" transform="translate(217.08 81.09) rotate(-2.61)"><tspan x="0" y="0">B</tspan></text>
        <text class="cls-20" transform="translate(217.08 81.09) rotate(-2.61)"><tspan x="0" y="0">B</tspan></text>
      </g>
      <g>
        <text class="cls-5" transform="translate(174.37 84.47)"><tspan x="0" y="0">B</tspan></text>
        <path class="cls-40" d="M175.57,41.32c0-.57.47-1.22,1.42-1.95,2-1.52,5.51-2.71,10.55-3.56,2.62-.42,5.5-.64,8.65-.64,7.48,0,13.15,1.45,16.99,4.34,3.37,2.54,5.05,5.89,5.05,10.03,0,1.5-.26,2.96-.79,4.4-.52,1.43-1.27,2.51-2.25,3.24-1.32-.67-2.59-1.01-3.82-1.01-.57,0-1.01.11-1.31.34-.3.22-.45.64-.45,1.23,3.67.15,6.52,1.47,8.57,3.97,1.82,2.27,2.73,5.09,2.73,8.46,0,5.21-2.18,9.01-6.55,11.38-4.09,2.22-10.25,3.33-18.49,3.33-5.76,0-9.99-.18-12.69-.54s-4.64-1.22-5.84-2.56c-1.2-1.35-1.8-3.39-1.8-6.14v-34.32ZM195.89,55.73c.1.07.39.11.86.11s.83-.19,1.08-.56c.25-.37.37-.98.37-1.83v-.22c0-.9-.11-1.54-.32-1.93-.21-.39-.56-.58-1.05-.58s-.82.05-.99.15c.02.13.04.34.04.64v4.23ZM195.89,69.84c.1.07.39.11.86.11s.83-.16,1.08-.49c.25-.32.37-.9.37-1.72v-.71c0-.92-.11-1.58-.32-1.98-.21-.4-.56-.6-1.05-.6s-.82.05-.99.15c.02.12.04.34.04.64v4.6Z"/>
        <text class="cls-27" transform="translate(174.37 84.47)"><tspan x="0" y="0">B</tspan></text>
        <text class="cls-24" transform="translate(174.37 84.47)"><tspan x="0" y="0">B</tspan></text>
      </g>
      <g>
        <text class="cls-7" transform="translate(259.34 90.45) rotate(5.45)"><tspan x="0" y="0">L</tspan></text>
        <path class="cls-1" d="M269.17,91.43c-2.76-.26-4.82-1.2-6.18-2.81-1.36-1.61-1.9-3.89-1.62-6.85l3.48-36.44c1.42-.99,3.11-1.7,5.07-2.13,1.96-.43,3.96-.54,5.99-.35,3,.29,5.48,1.27,7.42,2.96,2.1,1.9,3.01,4.35,2.72,7.33l-1.94,20.38c-1.4,0-2.81.25-4.21.78-1.4.53-2.14,1.14-2.21,1.84-.04.42.16.8.6,1.15,2.66-1.83,6.4-2.51,11.25-2.05l8.83.84c1.36,3.04,1.9,6.06,1.62,9.06-.14,1.49-.56,3.12-1.25,4.88-.69,1.76-1.52,3.09-2.48,3.97l-27.08-2.58Z"/>
        <text class="cls-9" transform="translate(259.34 90.45) rotate(5.45)"><tspan x="0" y="0">L</tspan></text>
        <text class="cls-22" transform="translate(259.34 90.45) rotate(5.45)"><tspan x="0" y="0">L</tspan></text>
      </g>
      <g>
        <text class="cls-25" transform="translate(312.04 130.72) rotate(-13)"><tspan x="0" y="0">E</tspan></text>
        <path class="cls-46" d="M318.75,79.62l21.04-4.86c.97,1,1.79,2.15,2.45,3.45.66,1.3,1.11,2.49,1.37,3.58.57,2.46.51,4.41-.16,5.88-.67,1.46-1.87,2.39-3.6,2.79l-14.69,3.39c-.9.21-1.27.66-1.11,1.37l.07.29c.03.15.08.24.14.28l17.43-4.03c.61.65,1.21,1.51,1.79,2.58.58,1.17.98,2.25,1.2,3.22.67,2.89.65,5.28-.04,7.15l-7.91,1.83c-3.7.85-6.17,1.57-7.42,2.15-1.25.58-2.01,1.01-2.28,1.28-.27.29-.36.61-.28.95s.31.57.7.68c1.17-.71,2.43-1.3,3.77-1.79,1.78-.59,3.75-1.13,5.88-1.63l10.25-2.37c1.96,1.75,3.29,4.09,3.97,7.03.38,1.65.54,3.28.48,4.88-.07,1.6-.41,2.96-1.02,4.08l-27.31,6.31c-3.01.7-5.6.53-7.76-.51-2.35-1.1-3.88-3.15-4.57-6.17l-8.01-34.68c-.27-1.17.87-2.33,3.42-3.48,2.55-1.15,6.62-2.37,12.21-3.67Z"/>
        <text class="cls-23" transform="translate(312.04 130.72) rotate(-13)"><tspan x="0" y="0">E</tspan></text>
        <text class="cls-17" transform="translate(312.04 130.72) rotate(-13)"><tspan x="0" y="0">E</tspan></text>
      </g>
    </g>
  </g>
</svg>