<?xml version="1.0" encoding="UTF-8"?>
<svg xmlns="http://www.w3.org/2000/svg" version="1.1" viewBox="0 0 360 230.34">
  <defs>
    <style>
      .cls-1, .cls-2 {
        fill: #231f20;
      }

      .cls-3, .cls-4 {
        fill: #fff;
      }

      .cls-2, .cls-5, .cls-4, .cls-6 {
        stroke: #231f20;
        stroke-miterlimit: 10;
        stroke-width: 4px;
      }

      .cls-5 {
        fill: #6c706f;
      }

      .cls-6 {
        fill: #818285;
      }

      .cls-7 {
        display: none;
      }

      .cls-8 {
        fill: #d17e7e;
      }
    </style>
  </defs>
  <!-- Generator: Adobe Illustrator 28.6.0, SVG Export Plug-In . SVG Version: 1.2.0 Build 709)  -->
  <g>
    <g id="Layer_1">
      <g id="body" class="cls-7">
        <path class="cls-6" d="M248.28,262.01c2.31-.43,3.8-1.25,3.8-1.25,28.79-19.69-10.43-74.83-10.43-74.83h-124.9s-38.51,55.14-10.27,74.83l5.26,5.84c-1.29,11.26-5.14,60.43,28.98,60.04,0,0,25.69,7.69,29.53-42.79h22.24c3.69,50.47,28.31,42.79,28.31,42.79,36.94.43,27.49-62.32,27.49-62.32v-2.31M229.26,250.33,115.1,262.05,112.2,264.21,127.88,252.01,137.45,220.56,220.79,221.93,225.22,241.11,220.28,218.41,225.41,241.58"/>
        <path class="cls-6" d="M137.45,218.41s-.27,4.15-1.12,9.97c-2.57,17.45-10.48,49.89-32.53,30.22"/>
        <path class="cls-6" d="M218.14,218.41s.74,5.57,2.64,12.74c4,15.08,13.13,37.25,31.3,29.61"/>
        <path class="cls-4" d="M112.2,297.19l55.95,1.69,2.09-15.03h22.24l2.01,15.03,53.79-2.56c.09-5.26.14-10.58.15-15.98,0-6.2-.04-12.31-.15-18.33-2.88-.62-15.14-2.36-21.07-13.54-4.43-8.35-6.42-17.33-6.42-17.33l-85.16,1.5s-4.87,36.76-23.9,33.95c0,.06.18,11.48.18,11.53,0,.16.29,18.9.29,19.05Z"/>
        <path class="cls-4" d="M267.25,348.22"/>
      </g>
      <path class="cls-5" d="M272.05,46s11.81-27.73-15.75-34.1-28.04,13.92-28.04,13.92l43.79,20.18Z"/>
      <path class="cls-5" d="M96.8,46s-16.79-11.82,4.65-29.55c21.44-17.73,35.98,10.09,35.98,10.09l-40.63,19.46Z"/>
      <path class="cls-4" d="M295.96,184.96c-25.47,35.03-72.57,34.93-111.83,34.84-35.47-.08-99.16-.21-122.03-42.23-9.53-17.52-8.54-35.73-7.89-47.48.19-3.53,3.53-50.88,40.34-82.26,1.65-1.41,3.37-2.78,5.15-4.12,12.42-9.29,25.04-14.39,37.73-17.19,15.31-3.38,30.73-3.41,46.04-3.45,30.02-.07,60.69-.14,88.58,22.91,22.35,18.47,39.83,49.04,39.81,83.64,0,8.2-.02,33.47-15.91,55.32Z"/>
      <ellipse class="cls-8" cx="266.15" cy="121.91" rx="11.59" ry="7.73"/>
      <ellipse class="cls-8" cx="101.59" cy="118.73" rx="12.39" ry="8.63"/>
      <ellipse class="cls-2" cx="185.88" cy="113.28" rx="9.19" ry="5.46"/>
      <g>
        <path class="cls-3" d="M176.69,132.82s7.44-.48,7.87-11.38"/>
        <path class="cls-1" d="M176.69,132.82c3.32-2.8,4.68-6,6.74-9.63q1.18-2.14,1.95.25c.44,2.12.17,4.33-.99,6.25-1.47,2.53-4.85,4.46-7.7,3.13h0Z"/>
      </g>
      <path class="cls-1" d="M195.06,132.82c-3.44,1.92-8.13-.16-9.78-3.63-1.74-3.4-1.34-7.33.6-10.46,1.14,2.81,1.57,6.06,2.95,8.61,1.36,2.64,3.36,4.11,6.24,5.48h0Z"/>
      <path class="cls-5" d="M128.92,91.91c6.44-7.33,15.98-10.84,25.52-10.34,8.38.44,18.43,2.67,19.18,10.79,1.01,10.85-1.09,16.58-11.29,21.75-8.61,4.37-18.48,5.88-27.64,2.94-3.99-1.28-7.91-3.42-10.72-6.96-.56-.7.46.82,0,0,0,0-2.18-10.08,4.94-18.18Z"/>
      <path class="cls-5" d="M244.78,91.91c-6.48-7.33-16.09-10.84-25.69-10.34-8.44.44-18.55,2.67-19.31,10.79-1.02,10.85,1.1,16.58,11.36,21.75,8.67,4.37,18.61,5.88,27.82,2.94,4.01-1.28,7.96-3.42,10.79-6.96.56-.7-.46.82,0,0,0,0,2.19-10.08-4.97-18.18Z"/>
      <ellipse class="cls-2" cx="161.49" cy="100.66" rx="4.15" ry="4.32"/>
      <ellipse class="cls-2" cx="211.03" cy="100.21" rx="3.72" ry="3.86"/>
      <line class="cls-2" x1="183.89" y1="125.78" x2="183.89" y2="110.1"/>
    </g>
  </g>
</svg>