<?xml version="1.0" encoding="UTF-8"?>
<svg xmlns="http://www.w3.org/2000/svg" version="1.1" viewBox="0 0 360 230.34">
  <defs>
    <style>
      .cls-1 {
        fill: #231f20;
      }

      .cls-2 {
        fill: #fff;
      }

      .cls-3, .cls-4 {
        fill: #615b5d;
      }

      .cls-5 {
        fill: #e8e7ea;
      }

      .cls-5, .cls-4 {
        stroke: #231f20;
        stroke-miterlimit: 10;
        stroke-width: 4px;
      }

      .cls-6 {
        fill: #e594a5;
      }

      .cls-7 {
        display: none;
      }

      .cls-8 {
        fill: #dc8b45;
      }
    </style>
  </defs>
  <!-- Generator: Adobe Illustrator 28.6.0, SVG Export Plug-In . SVG Version: 1.2.0 Build 709)  -->
  <g>
    <g id="Layer_1">
      <g id="body" class="cls-7">
        <path class="cls-5" d="M226.14,250.23,112.76,261.43,109.88,263.49,125.46,251.84,134.96,221.81,217.73,223.12,222.13,241.43,217.22,219.75,222.32,241.88,245.03,261.39c2.3-.41,3.78-1.2,3.78-1.2,28.59-18.8-10.36-71.44-10.36-71.44h-124.05s-38.25,52.64-10.2,71.44l5.22,5.58c-1.29,10.75-5.1,57.7,28.78,57.32,0,0,25.51,7.34,29.33-40.85h22.08c3.66,48.19,28.12,40.85,28.12,40.85,36.69.41,27.3-59.5,27.3-59.5v-2.21"/>
        <path class="cls-5" d="M134.96,219.75s-4.22,63.41-33.43,38.37"/>
        <path class="cls-5" d="M215.1,219.75s7.08,51.2,33.71,40.44"/>
        <path class="cls-4" d="M189.61,282.24c2.45-2.27,6.53-5.52,12.34-7.98,12.29-5.2,23.5-3.1,27.08-2.38,7.44,1.5,13.18,4.5,17.07,7.07.79,4,.61,11.74-1.61,21.2-2.53,10.78-8.53,21.91-22.36,23.34,0,0-26.62,12.67-32.52-41.25Z"/>
        <path class="cls-4" d="M167.92,282.24c-2.49-2.27-6.64-5.52-12.55-7.98-12.5-5.2-23.9-3.1-27.53-2.38-7.57,1.5-13.4,4.5-17.36,7.07-.81,4-.62,11.74,1.64,21.2,2.58,10.78,8.67,21.91,22.73,23.34,0,0,27.06,12.67,33.07-41.25Z"/>
      </g>
      <path class="cls-4" d="M300.48,181.51s-2.48,2.9-5.5,5.66c-16.38,14.97-55.56,32.24-112.54,29.38-38.76-1.95-85.93-4.32-114.02-39.74-3.23-4.07-16.88-22.04-19.09-48.15,0,0-3.38-50.9,38.55-85.03,2.63-2.14,5.44-4.14,5.44-4.14,13.11-9.35,26.43-14.47,39.83-17.29,16.16-3.4,32.43-3.43,48.6-3.47,45.21-.1,69.59,4.72,93.5,23.04,26.36,20.2,40.69,51.96,41.93,80.75.4,9.36,1.62,37.58-16.7,58.99Z"/>
      <path class="cls-3" d="M87.51,103.96"/>
      <path class="cls-2" d="M298.06,142.11c0,34.32-49.9,62.14-111.44,62.14s-111.4-27.82-111.4-62.14c0-12.65,6.77-24.39,18.37-34.19-.17-2.22-.25-4.44-.25-6.75,0-34.07,18.5-61.68,41.27-61.68,17.95,0,33.18,17.06,38.86,40.9,4.32-.34,8.72-.46,13.16-.46,3.47,0,6.9.08,10.29.29,6.22-22.29,20.95-37.92,38.09-37.92,22.81,0,41.27,27.61,41.27,61.68v1.17c13.71,10.35,21.8,23.13,21.8,36.96Z"/>
      <path class="cls-3" d="M175.88,101.15"/>
      <ellipse class="cls-8" cx="186.64" cy="90.87" rx="26.82" ry="13.1"/>
      <ellipse class="cls-6" cx="112.6" cy="128.32" rx="17.14" ry="7.9"/>
      <ellipse class="cls-6" cx="264.51" cy="128.79" rx="16.93" ry="6.92"/>
      <path class="cls-1" d="M125.82,88.73c1.2-9.28,9.88-22.11,20.13-14.46,4.49,3.54,7.02,9.1,8.37,14.46-2.35-2.84-4.48-5.7-6.84-8.18-2-2.08-4.73-4.49-7.65-4.58-6.03.11-10.62,8.19-14.01,12.76h0Z"/>
      <path class="cls-1" d="M219.08,87.9c1.2-9.28,9.88-22.11,20.13-14.46,4.49,3.54,7.02,9.1,8.37,14.46-2.35-2.84-4.48-5.7-6.84-8.18-2-2.08-4.73-4.49-7.65-4.58-6.03.11-10.62,8.19-14.01,12.76h0Z"/>
    </g>
  </g>
</svg>