<?xml version="1.0" encoding="UTF-8"?>
<svg xmlns="http://www.w3.org/2000/svg" version="1.1" viewBox="0 0 360 230.73">
  <defs>
    <style>
      .cls-1 {
        fill: none;
      }

      .cls-1, .cls-2, .cls-3, .cls-4, .cls-5, .cls-6 {
        stroke: #231f20;
        stroke-miterlimit: 10;
      }

      .cls-1, .cls-2, .cls-3, .cls-5, .cls-6 {
        stroke-width: 4px;
      }

      .cls-7, .cls-3, .cls-4 {
        fill: #231f20;
      }

      .cls-2, .cls-8 {
        fill: #de8d44;
      }

      .cls-9, .cls-5 {
        fill: #fff;
      }

      .cls-10 {
        fill: #f5d684;
      }

      .cls-11 {
        fill: #492e28;
      }

      .cls-6 {
        fill: #f9e0b2;
      }

      .cls-12 {
        display: none;
      }
    </style>
  </defs>
  <!-- Generator: Adobe Illustrator 28.6.0, SVG Export Plug-In . SVG Version: 1.2.0 Build 709)  -->
  <g>
    <g id="Layer_1">
      <g id="body" class="cls-12">
        <path class="cls-2" d="M244.18,265.99s.28,8.28,14.42-29.53c0,0,18.38-12.47,27.76-6.46,4.35,2.79,3.59,9.38-1.09,11.58-8.3,3.9-20.63,12.13-21.34,26.81-1.09,22.24-16.72,25.06-16.72,25.06"/>
        <path class="cls-2" d="M244.18,263.7c2.29-.43,3.76-1.24,3.76-1.24,28.47-19.47-10.32-74.01-10.32-74.01h-123.55s-38.09,54.54-10.16,74.01l5.2,5.78c-1.28,11.13-5.08,59.78,28.67,59.39,0,0,25.41,7.6,29.21-42.32h21.99c3.65,49.92,28.01,42.32,28.01,42.32,36.54.43,27.19-61.64,27.19-61.64v-2.29M225.36,252.14,112.44,263.74,109.57,265.87,125.09,253.81,134.55,222.7,216.98,224.06,221.37,243.03,216.48,220.57,221.56,243.49"/>
        <path class="cls-6" d="M176.03,274.15"/>
        <path class="cls-9" d="M216.95,191.36v61.04s2.92,19.66-26.96,21.32c-2.58.14-3.85.4-7.7.79-10.63,1.09-47.27-.98-47.27-23.27v-58.27"/>
        <path class="cls-9" d="M113.94,306.84h46.76s.38,20.14-21.82,20.37c-22.2.24-24.94-20.37-24.94-20.37Z"/>
        <path class="cls-9" d="M195.37,306.84h43.9c-.3,2-1.63,9.25-8.17,14.82-4.67,3.98-9.7,5.16-12.32,5.55-2.89.43-11.39,1.69-17.79-4.17-6.69-6.12-5.75-15.13-5.62-16.2Z"/>
        <path class="cls-9" d="M203.03,348.75"/>
        <path class="cls-9" d="M99.77,329.56"/>
        <path class="cls-1" d="M109.11,268.24s-6.2,60.01,23.27,58.97c29.46-1.04,26.78-2.65,34.61-41.91"/>
        <path class="cls-1" d="M188.98,285.31s-.92,49.42,28.01,42.32c0,0,26.97,6.52,28.23-42.32"/>
        <path class="cls-3" d="M120.3,264s21.39,10.59,7.76-11.86"/>
        <path class="cls-3" d="M108.62,276.82s46.87-11.54.95,20.32"/>
        <path class="cls-3" d="M225.36,255.09s-13.95,17.86,18.81,10.9"/>
        <path class="cls-3" d="M245.21,279.62s-57.5-15.03-1.04,18.3"/>
        <path class="cls-2" d="M134.55,220.57s-4.21,65.7-33.29,39.76"/>
        <path class="cls-2" d="M214.37,220.57s7.05,53.05,33.57,41.89"/>
      </g>
      <path class="cls-2" d="M290.92,187.53c-29.56,35.3-77,33.66-105.69,32.7-19.49-.67-92.71-3.23-117.71-52.68-10.95-21.62-9.04-45.08-8.5-51.63,2.2-26.86,13.89-45.84,19.82-54.23.75-1.05,1.37-1.93,1.91-2.64,0,0-13.1-21.53,4.98-39.42,18.08-17.84,41.21,3.36,41.21,3.36,28.82-12.51,55.93-12.09,57.84-12.05,20.07.59,40.43,6.25,58.79,15.66,0,0,15.84-22.96,38.48-6.97,22.6,16.03,7.21,43.74,7.21,43.74,12.27,15.36,20.57,33.29,22.68,52.55.46,4.28,4.02,41.77-21.02,71.61Z"/>
      <path class="cls-5" d="M312.25,113.75l-37.46,9.11c-3.07.88-7.57,2.05-13.08,3.07-11.49,2.11-24.63,4.53-38.7,1.38-18.21-4.07-33.42-16.45-33.39-16.51,0,0,.03.01.1.04l-12.22,1.65c-6.77,4.82-18.09,11.57-33.47,15.19-20.67,4.86-37.88,1.53-46.59-.82-12.96-.08-25.93-.16-38.89-.23,0,0-7.17,83.47,112.21,92.86,65.48,5.15,101.55-9.03,120.85-31.81,20.31-23.97,20.99-54.1,20.64-67.74"/>
      <path class="cls-4" d="M95.22,50.78l21.71-15.11s-12.21-11.82-19.9-4.31c-7.69,7.52-1.81,19.42-1.81,19.42Z"/>
      <path class="cls-4" d="M254.44,35.21l19.9,15.57s9.5-13.2,0-19.42c-9.5-6.22-19.9,3.85-19.9,3.85Z"/>
      <path class="cls-4" d="M223.57,18.14c9.84,24.14-25.22,11.19-25.22,11.19v10.49c28.04-2.14,21.71,7.3,21.71,7.3.45,12.36-23.07,8.7-23.07,8.7-10.4,63.19-22.16-.46-22.16-.46-30.31,7.78-25.33-4.58-25.33-4.58,1.36-10.53,25.33-8.7,25.33-8.7v-10.72c-31.21,10.34-27.58-15.38-27.58-15.38,7.31-3.13,20.72-7.74,37.98-7.33,17.71.42,31.16,5.93,38.34,9.49Z"/>
      <ellipse class="cls-4" cx="157.39" cy="105.14" rx="5.62" ry="5.69"/>
      <ellipse class="cls-4" cx="206.24" cy="105.14" rx="5.62" ry="5.69"/>
      <ellipse class="cls-10" cx="123.95" cy="114.66" rx="9.27" ry="7.1"/>
      <ellipse class="cls-10" cx="245.62" cy="113.75" rx="8.82" ry="6.18"/>
      <g>
        <path class="cls-9" d="M170.76,128.63s11.9,16.77,24.43,0"/>
        <path class="cls-7" d="M170.76,128.63c9.97,6.95,14.58,7.46,24.43,0-4.45,12.77-19.72,12.26-24.43,0h0Z"/>
      </g>
      <path class="cls-4" d="M310.41,145.45s-.49,6.07-26.19,8.36c0,0-11.99-.05-17.71,6.84,0,0-2.69,10.5,17.71,7.35l20.85-4.23,5.35-18.32Z"/>
      <path class="cls-4" d="M58.63,132.35s-.02.02-.03.03c-.08.2.74,1.4,23.1,6.31,16.72,3.67,23.16,2.02,24.46-1.1.81-1.95-.66-4.33-1.23-5.25-4.39-6.99-14.22-5.6-25.15-8.86-5.34-1.59-12.97-4.9-21.31-12.67l.13,21.56"/>
      <path class="cls-4" d="M67.52,167.55c4.41,1.83,23.71,2.75,23.71,2.75,14.02,5.95,12.21-10.07,12.21-10.07,0,0-2.71-5.5-15.83-4.12-9.36.98-26.27-6.41-26.27-6.41l6.18,17.86Z"/>
      <path class="cls-4" d="M312.38,110.83v17.12l-28.04,10.75h0c-12.1,4.43-14.97,4.12-14.97,4.12-5.54-.59-11.06-4.53-11.44-8.37-.08-.83,0-1.74.13-2.1,3.17-9.1,4.07-7.39,23.97-10.59,19.9-3.21,28.58-14.2,28.58-14.2"/>
      <path class="cls-8" d="M177.86,94.4c2.79-.37,5.6-.56,8.41-.58.78,0,1.8.21,1.9.99.05.37-.16.73-.37,1.03-1.95,2.86-5.33,4.8-6.27,8.14,3.58.46,7.19.68,10.79.67-6.84-.65-13.15-5.36-15.8-11.77"/>
      <path class="cls-8" d="M166.72,96.34c1.93.34,3.27.83,4.84,1.79.84.51,1.25.82,1.89,1.41.61.56,1.38,1.4,1.7,1.83l3.93-3.03c-4.66-5.06-8.48-10.8-11.45-17.06l-2.82,3.67c4.63,1.17,8.76,3.17,12.62,6.08,1.08.81,2.8.17,3.42-.9.75-1.28.18-2.6-.9-3.42-4.1-3.09-8.84-5.33-13.81-6.58-2.24-.56-3.74,1.74-2.82,3.67,3.13,6.6,7.28,12.69,12.23,18.07.84.91,2.35.94,3.28.2s1.39-2.21.64-3.23c-2.77-3.76-6.77-6.51-11.42-7.33-1.33-.23-2.69.36-3.08,1.75-.33,1.21.41,2.84,1.75,3.08h0Z"/>
      <path class="cls-8" d="M180.69,89.8c-5.6-3.16-11.02-6.61-16.26-10.32l-1.93,4.57c3.06,1.02,5.82,2.57,8.42,4.47,1.26.92,2.49,1.89,3.82,2.71,1.4.88,2.92,1.5,4.45,2.12,4.9,1.99,8.95,5.78,10.88,10.76l2.41-3.16c-4.87-.08-9.66-1.19-14.04-3.33-1.21-.59-2.7-.33-3.42.9-.64,1.1-.32,2.82.9,3.42,5.19,2.54,10.78,3.92,16.56,4.01,1.5.02,3-1.64,2.41-3.16-2.3-5.93-6.71-10.93-12.58-13.51-1.58-.69-3.2-1.26-4.69-2.14s-2.8-1.93-4.18-2.93c-2.95-2.16-6.15-3.82-9.61-4.98-1.17-.39-2.51.36-2.95,1.45-.49,1.22-.02,2.38,1.02,3.12,5.24,3.72,10.67,7.16,16.26,10.32,2.81,1.58,5.33-2.73,2.52-4.32h0Z"/>
      <path class="cls-8" d="M166.54,85.14c4.2,5.45,8.69,10.65,13.53,15.54.92.93,2.63.99,3.54,0s.98-2.54,0-3.54c-2.31-2.33-4.55-4.73-6.71-7.2-1.05-1.2-2.08-2.42-3.1-3.65-.54-.65-1.07-1.31-1.6-1.97-.23-.29-.47-.59-.7-.88-.14-.18-.29-.37-.43-.55-.03-.04-.34-.44-.21-.27-.79-1.03-2.19-1.69-3.42-.9-1.02.66-1.75,2.31-.9,3.42h0Z"/>
      <path class="cls-8" d="M192.91,102.13c-5.29-.95-10.52-2.17-15.69-3.63-1.26-.36-2.78.44-3.08,1.75s.4,2.69,1.75,3.08c5.17,1.46,10.4,2.67,15.69,3.63,1.28.23,2.76-.35,3.08-1.75.28-1.22-.37-2.83-1.75-3.08h0Z"/>
      <path class="cls-8" d="M187.96,99.34c-6.4-1.09-12.82-.18-18.66,2.67-1.21.59-1.54,2.32-.9,3.42.72,1.24,2.2,1.49,3.42.9,4.51-2.2,9.96-2.99,14.81-2.16,1.28.22,2.75-.34,3.08-1.75.28-1.21-.37-2.84-1.75-3.08h0Z"/>
      <path class="cls-8" d="M171.55,103.7c-2.76-5.23-5.53-10.46-8.78-15.4s-7.42-9.7-11.69-14.13l-3.03,3.93c9.99,4.73,17.47,13.04,24.73,21.13,1.89,2.11,5.45-.63,3.93-3.03-5.44-8.58-11.23-16.93-17.36-25.04l-3.93,3.03c5.33,5.9,10.22,12.16,14.64,18.77,1.78,2.66,6.11.16,4.32-2.52-4.65-6.96-9.81-13.57-15.42-19.78-1.87-2.07-5.65.74-3.93,3.03,6.12,8.11,11.91,16.46,17.36,25.04l3.93-3.03c-7.53-8.39-15.39-17.01-25.75-21.91-2.48-1.18-5.1,1.79-3.03,3.93,4.09,4.24,7.94,8.55,11.16,13.5s5.84,9.93,8.53,15.02c1.5,2.85,5.82.32,4.32-2.52h0Z"/>
      <path class="cls-8" d="M177.85,101.34c3.22,0,3.22-5,0-5s-3.22,5,0,5h0Z"/>
      <path class="cls-8" d="M153.05,90.09c5.99-.19,11.95.35,17.8,1.66,1.32.3,2.71-.4,3.08-1.75.35-1.26-.42-2.78-1.75-3.08-6.27-1.41-12.71-2.05-19.13-1.84-1.35.04-2.5,1.12-2.5,2.5s1.14,2.54,2.5,2.5h0Z"/>
      <path class="cls-8" d="M140.67,74.19c-.18,3.74-.1,7.47.24,11.2.15,1.71,2.07,3.35,3.76,2.16,4.33-3.05,7.98-6.82,10.86-11.27l-4.57-1.93c-2.76,7.6-6.06,14.98-9.89,22.1-1.35,2.51,1.82,4.98,3.93,3.03,4.07-3.77,7.65-8.03,10.72-12.65,1.4-2.11-1.34-4.68-3.42-3.42-1.47.89-2.94,1.78-4.41,2.67l3.42,3.42c2.06-2.74,4.3-5.34,6.67-7.82,1.97-2.06-.52-5.29-3.03-3.93-4.06,2.21-8.12,4.42-12.18,6.64l-1.3.71-.87.47c-.98.39-.56.7,1.28.93.1.55.15.67.14.36,0-.18,0-.19.02-.03.2-.13.5-.65.65-.91,1.14-1.84,1.22-3.96-.15-5.71-2.87-3.65-8.32-1.78-12.07-.85-4.28,1.07-8.43,2.53-12.49,4.24l3.76,2.16c.03-.75.57-1.39,1.05-1.93.81-.91,1.67-1.78,2.52-2.66,1.78-1.85,3.57-3.69,5.38-5.52,3.61-3.65,7.29-7.23,11.02-10.76l-3.54-3.54c-3.44,3.93-6.54,8.15-9.23,12.62-.64,1.06-.33,2.5.64,3.23,1.06.79,2.29.61,3.28-.2.91-.74,1.82-1.48,2.73-2.22l1.28-1.04.73-.59c.33-.24.13-.25-.62-.03l-1.1-.64.17.18-.64-1.1c-.06-.14.14-.69-.06-.07-.06.18-.09.38-.12.57-.16.89-.11,1.78.34,2.59.81,1.45,2.39,1.93,3.96,1.67,1.27-.21,2.29-.9,3.41-1.49s2.74-1.54,3.95-1.54l-1.26-.34.29.14-.9-.9c-.1-.61-.13-.69-.09-.24.04.33.09.66.14.99.11.4.28.83.49,1.19.47.84,1.25,1.53,2.08,2,1.99,1.13,4.3.75,6.41.23,3.12-.77,1.8-5.6-1.33-4.82-.74.18-2.21.73-2.85.07.07.07-.05-.81-.1-1.01-.24-.88-.82-1.56-1.62-1.97-1.5-.77-3.26-.04-4.71.53s-2.87,1.38-4.31,2.08c-.73.36-.82-.15.22,1.02.9,1.02.72,1.08.89.28.07-.34.16-.71.16-1.07.04-1.74-1.23-3.3-3.03-3.37-1.65-.06-2.84,1.14-4.03,2.11-1.34,1.09-2.67,2.17-4.01,3.26l3.93,3.03c2.48-4.12,5.29-7.99,8.45-11.61,2.11-2.41-1.18-5.77-3.54-3.54-4.08,3.86-8.09,7.79-12.03,11.79-1.91,1.94-3.81,3.91-5.69,5.88s-3.61,3.91-3.7,6.73c-.07,2.09,2.13,2.85,3.76,2.16,3.94-1.66,8.04-2.97,12.2-3.96,1.06-.25,2.12-.48,3.18-.69.36-.07.73-.16,1.1-.2.48-.06,1.05.13,1.49.07.03,0,.12.11.15.13-.29-.15.23-.35-.15-.04-.58.47-1.11,1.7-1.29,2.39-.46,1.79.11,3.83,1.8,4.75,2.16,1.17,4.48-.68,6.32-1.68,4.06-2.21,8.12-4.42,12.18-6.64l-3.03-3.93c-2.67,2.79-5.14,5.74-7.45,8.83-1.55,2.07,1.41,4.64,3.42,3.42,1.47-.89,2.94-1.78,4.41-2.67l-3.42-3.42c-2.84,4.28-6.17,8.16-9.94,11.64l3.93,3.03c4.03-7.5,7.49-15.29,10.39-23.3,1-2.77-3.09-4.21-4.57-1.93-2.39,3.7-5.47,6.94-9.07,9.48l3.76,2.16c-.34-3.73-.42-7.46-.24-11.2.15-3.22-4.85-3.21-5,0h0Z"/>
      <path class="cls-8" d="M171.02,95.8c.58,1.66,1.24,3.31,2.42,4.65,1.3,1.46,3.07,2.03,4.89,2.55,3.88,1.12,7.81,2.13,11.87,2.25v-5c-4.62.23-9.25.31-13.88.22v5c5.58-.16,11.16-.06,16.73.29l-.66-4.91c-1.5.38-3.13.33-4.57-.33-1.23-.56-2.69-.35-3.42.9-.63,1.07-.34,2.86.9,3.42,2.69,1.23,5.53,1.57,8.42.83,1.19-.31,1.97-1.55,1.79-2.74-.19-1.27-1.18-2.09-2.46-2.17-5.57-.35-11.15-.45-16.73-.29-3.21.09-3.23,4.94,0,5,4.63.09,9.26.01,13.88-.22,3.2-.16,3.23-4.9,0-5s-6.37-.88-9.47-1.76c-.74-.21-1.49-.42-2.23-.65-.22-.07-.59-.19-.71-.26-.02-.01-.59-.42-.43-.27-.75-.65-1.17-1.82-1.52-2.84-.44-1.27-1.71-2.12-3.08-1.75-1.24.34-2.19,1.79-1.75,3.08h0Z"/>
      <path class="cls-8" d="M173.8,105.33l15.79.43c1.31.04,2.56-1.18,2.5-2.5s-1.1-2.46-2.5-2.5l-15.79-.43c-1.31-.04-2.56,1.18-2.5,2.5s1.1,2.46,2.5,2.5h0Z"/>
      <path class="cls-8" d="M172,110.21c.19-.32.4-.64.61-.95.09-.12.18-.25.26-.37-.27.37.04-.05.1-.12.45-.55.95-1.07,1.47-1.56.25-.23.51-.45.77-.66.21-.18-.25.17.12-.09.15-.11.3-.22.46-.33.59-.4,1.2-.77,1.84-1.09.13-.07.27-.13.4-.2-.01,0,.59-.27.32-.15s.34-.13.33-.13c.14-.05.28-.1.42-.15.67-.23,1.36-.42,2.06-.57.18-.04.37-.07.55-.1.48-.1-.19,0,.11-.02.33-.03.67-.07,1-.08.75-.04,1.5-.01,2.24.06,1.31.12,2.56-1.24,2.5-2.5-.07-1.46-1.1-2.37-2.5-2.5-6.9-.66-13.85,3.09-17.38,8.99-.67,1.12-.29,2.79.9,3.42s2.7.3,3.42-.9h0Z"/>
      <path class="cls-8" d="M182.36,100.91c-2.71,0-5.41,0-8.12,0-1.31,0-2.56,1.15-2.5,2.5s1.1,2.5,2.5,2.5c2.71,0,5.41,0,8.12,0,1.31,0,2.56-1.15,2.5-2.5s-1.1-2.5-2.5-2.5h0Z"/>
      <path class="cls-8" d="M170.2,95.6l.93,1.35c.16.29.37.53.64.7.24.22.52.37.85.45.33.1.66.12,1,.04.33-.02.64-.11.93-.3l.51-.39c.31-.31.52-.68.64-1.1l.09-.66c0-.45-.12-.87-.34-1.26l-.93-1.35c-.16-.29-.37-.53-.64-.7-.24-.22-.52-.37-.85-.45-.33-.1-.66-.12-1-.04-.33.02-.64.11-.93.3l-.51.39c-.31.31-.52.68-.64,1.1l-.09.66c0,.45.12.87.34,1.26h0Z"/>
      <path class="cls-8" d="M186.87,101.82c-3.91,0-7.82,0-11.73,0-1.31,0-2.56,1.15-2.5,2.5s1.1,2.5,2.5,2.5c3.91,0,7.82,0,11.73,0,1.31,0,2.56-1.15,2.5-2.5s-1.1-2.5-2.5-2.5h0Z"/>
      <path class="cls-8" d="M187.55,104.66c-6.09-3.89-14.42-3.95-20.54-.06-1.69,1.07-3.47,2.47-3.56,4.65s1.9,3.75,4.01,3.67c1.9-.07,3.61-1.26,5.3-2.01,1.87-.83,3.82-1.51,5.79-2.08,4.45-1.29,9.01-1.92,13.65-1.92l-.66-4.91c-5.98,1.54-11.95,3.08-17.93,4.61l1.33,4.82c3.29-.9,6.6-1.77,9.91-2.57,2.54-.62,5.58-1.37,8.09-.21l-.51-3.93c-.56.54-1.54.43-2.27.41-1.2-.02-2.39-.09-3.59-.11-2.5-.05-5.01-.04-7.51.2-4.96.47-9.91,1.72-13.95,4.76-2.26,1.7-.97,5.09,1.93,4.57,4.08-.74,8.05-1.9,11.88-3.48,1.84-.76,3.65-1.59,5.41-2.52s3.83-1.85,5.22-3.24c1.88-1.88,1.03-4.36-.93-5.72-1.59-1.1-3.49-1.61-5.39-1.77-4.1-.35-7.99,1.53-11.43,3.54-2.41,1.41-.83,5.42,1.93,4.57,4.4-1.36,8.79-2.73,13.19-4.09l-1.93-4.57c-4.89,2.64-9.6,5.57-14.13,8.78-1.1.78-1.62,2.18-.9,3.42.67,1.15,2.26,1.61,3.42.9,2.82-1.73,5.65-3.46,8.47-5.19s.23-6.01-2.52-4.32l-8.47,5.19,2.52,4.32c4.53-3.21,9.25-6.15,14.13-8.78,2.48-1.34.79-5.41-1.93-4.57-4.4,1.36-8.79,2.73-13.19,4.09l1.93,4.57c2.08-1.21,4.26-2.43,6.67-2.8,1.66-.26,4.15-.14,5.28,1.3l-.64-1.1v-.02c.1-.42.21-.84.33-1.26-.14.28-1.39.89-1.83,1.15-.76.45-1.54.88-2.32,1.3-1.64.87-3.32,1.67-5.04,2.35-3.57,1.42-7.28,2.46-11.06,3.15l1.93,4.57c3.92-2.94,8.63-3.98,13.45-4.23,2.5-.13,5.01-.08,7.51,0,2.66.09,5.33.16,7.37-1.82,1.07-1.03.96-3.25-.51-3.93-3.46-1.59-7.03-1.38-10.68-.59s-7.47,1.86-11.18,2.87c-3.1.84-1.79,5.63,1.33,4.82,5.98-1.54,11.95-3.08,17.93-4.61,2.74-.7,2.16-4.91-.66-4.91-4.3,0-8.61.51-12.79,1.52-2.06.5-4.08,1.13-6.06,1.88s-3.95,1.78-5.67,2.5c-.14.05-.29.1-.44.13.07-.01.14,0,.2.04.11,1.9.47,2.46,1.1,1.66.07-.07.14-.14.23-.19.68-.54,1.46-.97,2.23-1.35,1.37-.68,2.92-1.11,4.44-1.3,3.38-.4,6.73.35,9.59,2.18s5.23-2.59,2.52-4.32h0Z"/>
      <ellipse class="cls-11" cx="184.54" cy="113.45" rx="13.78" ry="6.48"/>
    </g>
  </g>
</svg>